# Blender 4.1.1
# www.blender.org
mtllib tileMesh.mtl
o Cylinder
v 1.000000 0.050000 -0.000000
v 0.500000 0.050000 -0.866025
v -0.500000 0.050000 -0.866025
v -1.000000 0.050000 -0.000000
v -0.500000 0.050000 0.866025
v 0.500000 0.050000 0.866025
v 1.000000 -0.050000 0.000000
v 0.500000 -0.050000 -0.866025
v -0.500000 -0.050000 -0.866025
v -1.000000 -0.050000 0.000000
v -0.500000 -0.050000 0.866025
v 0.500000 -0.050000 0.866025
vn -0.0000 1.0000 -0.0000
vn 0.8660 -0.0000 -0.5000
vn -0.0000 -0.0000 -1.0000
vn -0.8660 -0.0000 -0.5000
vn -0.8660 -0.0000 0.5000
vn -0.0000 -0.0000 1.0000
vn 0.8660 -0.0000 0.5000
vn -0.0000 -1.0000 -0.0000
vt 1.000000 0.144338
vt 0.916667 -0.000000
vt 0.750000 0.000000
vt 0.666667 0.144338
vt 0.750000 0.288675
vt 0.916667 0.288675
vt 0.000000 0.000000
vt 0.333333 0.000000
vt 0.333333 0.333333
vt 0.000000 0.333333
vt 0.333333 0.666667
vt 0.000000 0.666667
vt 0.333333 -0.000000
vt 0.666667 -0.000000
vt 0.666667 0.333333
vt 0.333333 0.333333
vt 0.666667 0.666667
vt 0.333333 1.000000
vt 0.000000 1.000000
vt 0.666667 1.000000
vt 1.000000 0.433013
vt 0.750000 0.288675
vt 0.666667 0.433013
vt 0.750000 0.577350
vt 0.916667 0.577350
s 0
usemtl Material.001
f 1/1/1 2/2/1 3/3/1 4/4/1 5/5/1 6/6/1
f 1/7/2 7/8/2 8/9/2 2/10/2
f 2/10/3 8/9/3 9/11/3 3/12/3
f 3/9/4 9/13/4 10/14/4 4/15/4
f 4/11/5 10/16/5 11/15/5 5/17/5
f 5/12/6 11/11/6 12/18/6 6/19/6
f 6/11/7 12/17/7 7/20/7 1/18/7
f 12/21/8 11/6/8 10/22/8 9/23/8 8/24/8 7/25/8
