# Blender 4.1.1
# www.blender.org
mtllib tileMesh.mtl
o Cylinder
v 1.000000 0.050000 0.000000
v 0.500000 0.050000 -0.866025
v -0.500000 0.050000 -0.866025
v -1.000000 0.050000 0.000000
v -0.500000 0.050000 0.866025
v 0.500000 0.050000 0.866025
v 1.000000 -0.050000 0.000000
v 0.500000 -0.050000 -0.866025
v -0.500000 -0.050000 -0.866025
v -1.000000 -0.050000 0.000000
v -0.500000 -0.050000 0.866025
v 0.500000 -0.050000 0.866025
vn -0.0000 1.0000 -0.0000
vn 0.8660 -0.0000 -0.5000
vn -0.0000 -0.0000 -1.0000
vn -0.8660 -0.0000 -0.5000
vn -0.8660 -0.0000 0.5000
vn -0.0000 -0.0000 1.0000
vn 0.8660 -0.0000 0.5000
vn -0.0000 -1.0000 -0.0000
s 0
usemtl 
f 1//1 2//1 3//1 4//1 5//1 6//1
f 1//2 7//2 8//2 2//2
f 2//3 8//3 9//3 3//3
f 3//4 9//4 10//4 4//4
f 4//5 10//5 11//5 5//5
f 5//6 11//6 12//6 6//6
f 6//7 12//7 7//7 1//7
f 12//8 11//8 10//8 9//8 8//8 7//8
